<svg width="108" height="19" viewBox="0 0 108 19" fill="none" xmlns="http://www.w3.org/2000/svg">
<path d="M10.5631 18H8.54885V16.2345H8.49911C7.48786 17.6104 6.19479 18.2984 4.61989 18.2984C3.29367 18.2984 2.24097 17.9254 1.46181 17.1794C0.682653 16.4168 0.293073 15.3724 0.293073 14.0462V5.14387H2.30728V13.9964C2.30728 14.8253 2.55595 15.4719 3.05329 15.9361C3.5672 16.4002 4.28005 16.6323 5.19183 16.6323C6.20308 16.6323 7.01539 16.2925 7.62878 15.6128C8.24216 14.9331 8.54885 14.0793 8.54885 13.0515V5.14387H10.5631V18ZM15.301 5.14387V6.83481H15.3507C16.3454 5.50858 17.7047 4.84547 19.4288 4.84547C20.7882 4.84547 21.8492 5.20189 22.6118 5.91474C23.3744 6.62759 23.7557 7.64713 23.7557 8.97336V18H21.7415V9.14742C21.7415 8.31853 21.4845 7.68028 20.9706 7.23268C20.4567 6.7685 19.7438 6.53641 18.832 6.53641C17.8042 6.53641 16.9587 6.86797 16.2956 7.53108C15.6325 8.1942 15.301 9.04796 15.301 10.0924V18H13.2867V5.14387H15.301ZM31.9199 18.3481C30.0135 18.3481 28.4966 17.7099 27.3693 16.4334C26.2586 15.1403 25.7032 13.524 25.7032 11.5844C25.7032 9.67791 26.2669 8.07815 27.3942 6.78508C28.5381 5.47543 30.0052 4.8206 31.7956 4.8206C33.6855 4.8206 35.1443 5.48372 36.1722 6.80995C37.2 8.1196 37.7139 9.86856 37.7139 12.0568H27.7672C27.8501 13.4162 28.2479 14.5269 28.9608 15.389C29.6902 16.2345 30.6766 16.6572 31.9199 16.6572C33.843 16.6572 35.0283 15.7786 35.4759 14.0213H37.4404C37.142 15.3973 36.512 16.4665 35.5505 17.2291C34.589 17.9751 33.3788 18.3481 31.9199 18.3481ZM34.4812 7.50622C33.8347 6.77679 32.9395 6.41208 31.7956 6.41208C30.6517 6.41208 29.7399 6.79337 29.0603 7.55595C28.3971 8.31853 27.9827 9.3132 27.8169 10.54H35.5505C35.4842 9.24689 35.1278 8.23564 34.4812 7.50622ZM45.179 18.3481C43.2725 18.3481 41.7557 17.7099 40.6284 16.4334C39.5176 15.1403 38.9623 13.524 38.9623 11.5844C38.9623 9.67791 39.5259 8.07815 40.6532 6.78508C41.7971 5.47543 43.2642 4.8206 45.0547 4.8206C46.9445 4.8206 48.4034 5.48372 49.4312 6.80995C50.459 8.1196 50.9729 9.86856 50.9729 12.0568H41.0262C41.1091 13.4162 41.507 14.5269 42.2198 15.389C42.9493 16.2345 43.9356 16.6572 45.179 16.6572C47.102 16.6572 48.2873 15.7786 48.7349 14.0213H50.6994C50.401 15.3973 49.7711 16.4665 48.8095 17.2291C47.848 17.9751 46.6378 18.3481 45.179 18.3481ZM47.7403 7.50622C47.0937 6.77679 46.1985 6.41208 45.0547 6.41208C43.9108 6.41208 42.999 6.79337 42.3193 7.55595C41.6562 8.31853 41.2417 9.3132 41.076 10.54H48.8095C48.7432 9.24689 48.3868 8.23564 47.7403 7.50622ZM59.0597 18.373C57.3522 18.373 56.0011 17.685 55.0064 16.3091H54.9567V18H52.9425V0.220246H54.9567V6.98401H55.0064C56.0508 5.55832 57.4268 4.84547 59.1343 4.84547C60.7921 4.84547 62.1183 5.45056 63.113 6.66074C64.1077 7.85435 64.605 9.50385 64.605 11.6092C64.605 13.6815 64.1077 15.331 63.113 16.5577C62.1349 17.7679 60.7838 18.373 59.0597 18.373ZM58.9105 16.6821C60.1041 16.6821 61.0076 16.2262 61.621 15.3144C62.2344 14.386 62.5411 13.1593 62.5411 11.6341C62.5411 10.1255 62.2344 8.90704 61.621 7.97868C61.0076 7.03375 60.1124 6.56128 58.9354 6.56128C57.5926 6.56128 56.573 7.04204 55.8768 8.00355C55.1805 8.94849 54.8323 10.1587 54.8323 11.6341C54.8323 13.1427 55.1805 14.3612 55.8768 15.2895C56.573 16.2179 57.5843 16.6821 58.9105 16.6821ZM65.8551 18V15.5382H68.2672V18H65.8551ZM75.206 18.373C73.4488 18.373 72.0562 17.7679 71.0284 16.5577C70.0171 15.331 69.5115 13.6815 69.5115 11.6092C69.5115 9.52043 70.042 7.87093 71.103 6.66074C72.164 5.45056 73.5151 4.84547 75.1563 4.84547C76.897 4.84547 78.2398 5.55003 79.1847 6.95915H79.2344V0.220246H81.2486V18H79.2344V16.4334H79.1847C78.1735 17.7265 76.8472 18.373 75.206 18.373ZM75.2806 16.6821C76.6566 16.6821 77.6761 16.2262 78.3392 15.3144C79.0189 14.4026 79.3588 13.1758 79.3588 11.6341C79.3588 10.1089 78.9941 8.88218 78.2646 7.95382C77.5518 7.02546 76.5488 6.56128 75.2557 6.56128C74.0787 6.56128 73.1669 7.03375 72.5204 7.97868C71.8904 8.90704 71.5755 10.1255 71.5755 11.6341C71.5755 13.1427 71.8904 14.3612 72.5204 15.2895C73.1669 16.2179 74.087 16.6821 75.2806 16.6821ZM89.4729 18.3481C87.5665 18.3481 86.0496 17.7099 84.9223 16.4334C83.8116 15.1403 83.2562 13.524 83.2562 11.5844C83.2562 9.67791 83.8199 8.07815 84.9472 6.78508C86.0911 5.47543 87.5582 4.8206 89.3486 4.8206C91.2385 4.8206 92.6973 5.48372 93.7252 6.80995C94.753 8.1196 95.2669 9.86856 95.2669 12.0568H85.3202C85.4031 13.4162 85.8009 14.5269 86.5138 15.389C87.2432 16.2345 88.2296 16.6572 89.4729 16.6572C91.396 16.6572 92.5813 15.7786 93.0289 14.0213H94.9934C94.695 15.3973 94.065 16.4665 93.1035 17.2291C92.142 17.9751 90.9318 18.3481 89.4729 18.3481ZM92.0342 7.50622C91.3877 6.77679 90.4925 6.41208 89.3486 6.41208C88.2047 6.41208 87.293 6.79337 86.6133 7.55595C85.9501 8.31853 85.5357 9.3132 85.3699 10.54H93.1035C93.0372 9.24689 92.6808 8.23564 92.0342 7.50622ZM100.177 18L95.6757 5.14387H97.8391L100.5 13.3002L101.345 16.0107H101.395C101.71 14.9497 101.992 14.0462 102.24 13.3002L104.951 5.14387H107.04L102.415 18H100.177Z" fill="black"/>
</svg>
